<?xml version="1.0" encoding="UTF-8" standalone="no"?>
<!-- Created with Inkscape (http://www.inkscape.org/) -->

<svg
   version="1.1"
   id="svg1"
   width="545.85529"
   height="976.71533"
   viewBox="0 0 545.85529 976.71533"
   sodipodi:docname="brand-mark.svg"
   inkscape:version="1.4.2 (f4327f4, 2025-05-13)"
   xmlns:inkscape="http://www.inkscape.org/namespaces/inkscape"
   xmlns:sodipodi="http://sodipodi.sourceforge.net/DTD/sodipodi-0.dtd"
   xmlns="http://www.w3.org/2000/svg"
   xmlns:svg="http://www.w3.org/2000/svg">
  <defs
     id="defs1" />
  <sodipodi:namedview
     id="namedview1"
     pagecolor="#ffffff"
     bordercolor="#000000"
     borderopacity="0.25"
     inkscape:showpageshadow="2"
     inkscape:pageopacity="0.0"
     inkscape:pagecheckerboard="true"
     inkscape:deskcolor="#d1d1d1"
     inkscape:zoom="0.53059896"
     inkscape:cx="251.60245"
     inkscape:cy="521.1092"
     inkscape:window-width="1920"
     inkscape:window-height="1017"
     inkscape:window-x="-8"
     inkscape:window-y="-8"
     inkscape:window-maximized="1"
     inkscape:current-layer="g1" />
  <g
     inkscape:groupmode="layer"
     inkscape:label="Image"
     id="g1"
     transform="translate(-1157.7367,-246.86121)">
    <path
       style="fill:#d60e15;fill-opacity:1"
       d="m 1361.616,1223.0761 -25.5,-0.5 -1.9134,-3.9196 c -1.0524,-2.1558 -2.0341,-6.4308 -2.1817,-9.5 -0.1476,-3.0692 -1.3877,-11.2054 -2.7559,-18.0804 -1.3682,-6.875 -3.4106,-17.45 -4.5387,-23.5 -1.128,-6.05 -3.9073,-20.9 -6.176,-33 -5.6111,-29.9262 -5.2531,-27.9397 -10.995,-61 -1.7194,-9.9 -4.7114,-26.325 -6.6488,-36.5 -1.9375,-10.175 -3.8843,-20.525 -4.3263,-23 -0.442,-2.475 -1.2928,-6.6424 -1.8906,-9.2609 -0.5978,-2.6185 -2.407,-12.2935 -4.0204,-21.5 -5.7029,-32.5427 -7.038,-39.8075 -8.4973,-46.23912 -0.8112,-3.575 -1.9455,-9.425 -2.5208,-13 -1.2897,-8.01447 -5.4186,-30.10087 -8.132,-43.5 -1.1138,-5.5 -2.6814,-14.275 -3.4836,-19.5 -0.8021,-5.225 -2.7967,-16.475 -4.4324,-25 -1.6357,-8.525 -4.329,-23.15 -5.9852,-32.5 -1.6562,-9.35 -4.8457,-27.35 -7.0878,-40 -2.242,-12.65 -4.6832,-26.51566 -5.4248,-30.81258 -0.7415,-4.29692 -1.7687,-8.34692 -2.2825,-9 -0.5138,-0.65308 -1.2171,-3.88742 -1.563,-7.18742 -0.3458,-3.3 -1.3076,-9.825 -2.1373,-14.5 -0.8298,-4.675 -2.6251,-14.8 -3.9896,-22.5 -5.5555,-31.35071 -9.6911,-53.64188 -12.0593,-65 -3.2443,-15.5596 -6.5608,-34.06299 -6.9007,-38.5 -0.3962,-5.17338 -7.4267,-44.5673 -9.1632,-51.34474 -0.8237,-3.2146 -2.603,-13.3396 -3.9541,-22.5 -2.4867,-16.85902 -3.1233,-20.27017 -6.4681,-34.65526 -2.2833,-9.82039 -6.8986,-34.33948 -16.5645,-88 -0.7926,-4.4 -2.5254,-13.625 -3.8508,-20.5 -1.3253,-6.875 -2.6717,-14.975 -2.992,-18 -0.7157,-6.76127 -1.695,-12.49971 -6.0581,-35.5 -7.831,-41.28161 -8.7246,-46.22697 -9.2208,-51.03027 -0.3741,-3.6206 -0.1243,-5.35843 0.8913,-6.20131 1.048,-0.86978 21.5826,-1.2112 79.821,-1.32716 l 78.41,-0.15613 1.7962,2.21822 c 0.9879,1.22002 1.7962,3.11872 1.7962,4.21933 0,2.36939 5.7242,35.30693 11.5183,66.27732 0.7202,3.85 1.5966,9.475 1.9473,12.5 0.3508,3.025 1.0697,7.525 1.5977,10 1.2804,6.00292 7.1531,40.46589 10.3947,61 1.4326,9.075 3.6861,22.35 5.0077,29.5 4.0383,21.84822 8.361,46.80776 12.5559,72.5 2.2002,13.475 5.3688,31.925 7.0413,41 1.6725,9.075 3.4692,20.1 3.9926,24.5 1.0592,8.9045 6.1506,39.78226 11.4596,69.5 1.916,10.725 4.823,27.375 6.4599,37 4.4597,26.22221 5.8531,34.36686 8.0408,47 1.0953,6.325 2.2201,13.525 2.4994,16 0.2794,2.475 1.656,11.025 3.0591,19 1.4031,7.975 3.6304,20.8 4.9495,28.5 1.3191,7.7 3.0584,17.15 3.865,21 0.8066,3.85 2.1876,11.725 3.0689,17.5 1.4047,9.20546 7.7185,45.35694 10.3915,59.5 0.5198,2.75 2.4261,14.3375 4.2363,25.75 1.8102,11.4125 3.565,20.75 3.8997,20.75 0.6589,0 7.8791,-41.30041 9.1106,-52.11319 0.4142,-3.63725 1.7148,-11.10494 2.8903,-16.59485 1.1754,-5.48992 2.7404,-13.98899 3.4778,-18.88682 0.7374,-4.89782 2.9512,-18.13014 4.9196,-29.40514 1.9684,-11.275 3.8434,-23.4057 4.1666,-26.95711 0.3232,-3.55141 1.0176,-8.50141 1.543,-11 0.5254,-2.49859 1.653,-8.59289 2.5057,-13.54289 0.8527,-4.95 2.191,-12.6 2.974,-17 0.783,-4.4 3.0087,-17.675 4.9461,-29.5 4.131,-25.215 4.7763,-29.05061 10.7677,-64 2.4986,-14.575 5.7395,-34.375 7.202,-44 1.4625,-9.625 4.1607,-25.15 5.996,-34.5 1.8353,-9.35 4.2961,-23.525 5.4684,-31.5 2.6081,-17.74185 5.6328,-36.20107 8.1112,-49.5 1.8945,-10.16559 8.5139,-50.40748 11.4321,-69.5 0.8826,-5.775 2.748,-16.575 4.1452,-24 1.3973,-7.425 3.1634,-18.225 3.9248,-24 0.7614,-5.775 1.8209,-12.975 2.3544,-16 5.3562,-30.37082 11.4459,-67.00945 12.1902,-73.34154 0.5069,-4.31285 1.3394,-9.71285 1.85,-12 0.5105,-2.28715 1.6259,-8.83452 2.4785,-14.54971 0.8526,-5.71519 2.0576,-11.00269 2.6778,-11.75 0.9317,-1.12254 13.9568,-1.35875 74.9235,-1.35875 40.5876,0 74.5075,0.27314 75.3775,0.60699 1.8403,0.70617 2.0558,4.93922 0.6159,12.09379 -1.8853,9.36767 -5.9743,31.86054 -6.525,35.89297 -0.3075,2.25156 -0.9989,5.62656 -1.5365,7.5 -0.5376,1.87344 -1.4477,7.23125 -2.0223,11.90625 -0.5747,4.675 -1.9625,12.775 -3.084,18 -4.0151,18.7069 -5.8936,28.74484 -8.4212,45 -1.4111,9.075 -4.7491,27.525 -7.4178,41 -4.3827,22.12899 -7.7697,41.77348 -9.5692,55.5 -0.3605,2.75 -1.0523,5.74153 -1.5373,6.64784 -1.0101,1.8875 -8.0955,40.00163 -11.0335,59.35216 -1.0856,7.15 -2.8094,16.375 -3.8306,20.5 -1.9004,7.67635 -2.5002,10.86447 -8.5594,45.5 -4.7537,27.1732 -8.2501,46.49302 -11.2205,62 -4.4633,23.30029 -4.9431,25.85144 -7.1472,38 -1.1974,6.6 -2.6508,15.15 -3.2298,19 -0.5791,3.85 -1.5089,8.8 -2.0662,11 -1.3137,5.18538 -4.9341,24.77747 -9.3318,50.5 -1.9276,11.275 -3.7354,21.625 -4.0171,23 -0.2818,1.375 -1.1879,7 -2.0137,12.5 -0.8257,5.5 -1.7427,10.65965 -2.0376,11.46588 -0.7139,1.95137 -6.8085,34.508 -9.928,53.03412 -0.8798,5.225 -2.7183,14.9 -4.0854,21.5 -1.3672,6.6 -4.3109,22.125 -6.5415,34.50002 -4.3981,24.3995 -4.8617,26.9171 -10.3122,56 -2.0099,10.725 -3.8822,21.975 -4.1605,25 -0.2783,3.025 -1.8073,11.575 -3.3978,19 -1.5904,7.425 -3.1259,14.85 -3.4121,16.5 -1.0466,6.0327 -8.7186,48.2148 -10.0943,55.5 -2.2155,11.7324 -2.4055,12.8 -4.4488,25 -1.0593,6.325 -3.3221,18.7 -5.0285,27.5 -1.7064,8.8 -3.7813,19.825 -4.611,24.5 -0.8296,4.675 -2.387,12.4078 -3.4609,17.184 -1.0738,4.7762 -1.9593,9.2762 -1.9677,10 -0.052,4.4528 2.1883,4.316 -70.6982,4.316 -37.8326,0 -80.2615,-0.225 -94.2865,-0.5 z"
       id="path1" />
  </g>
</svg>
