<?xml version="1.0" encoding="UTF-8" standalone="no"?>
<!-- Created with Inkscape (http://www.inkscape.org/) -->

<svg
   version="1.1"
   id="svg1"
   width="2133.5505"
   height="795.28845"
   viewBox="0 0 2133.5505 795.28845"
   sodipodi:docname="Logo.svg"
   inkscape:version="1.4.2 (f4327f4, 2025-05-13)"
   xmlns:inkscape="http://www.inkscape.org/namespaces/inkscape"
   xmlns:sodipodi="http://sodipodi.sourceforge.net/DTD/sodipodi-0.dtd"
   xmlns="http://www.w3.org/2000/svg"
   xmlns:svg="http://www.w3.org/2000/svg">
  <defs
     id="defs1" />
  <sodipodi:namedview
     id="namedview1"
     pagecolor="#ffffff"
     bordercolor="#000000"
     borderopacity="0.25"
     inkscape:showpageshadow="2"
     inkscape:pageopacity="0.0"
     inkscape:pagecheckerboard="true"
     inkscape:deskcolor="#d1d1d1"
     inkscape:zoom="0.37519012"
     inkscape:cx="1126.0957"
     inkscape:cy="443.77501"
     inkscape:window-width="1920"
     inkscape:window-height="1017"
     inkscape:window-x="-8"
     inkscape:window-y="-8"
     inkscape:window-maximized="1"
     inkscape:current-layer="g1" />
  <g
     inkscape:groupmode="layer"
     inkscape:label="Image"
     id="g1"
     transform="translate(-379.00351,-367.95828)">
    <path
       style="fill:#d90a10;fill-opacity:1"
       d="m 2503.6491,1162.2799 c -4.9662,-1.2061 -54.0924,-9.9788 -64,-11.4288 -2.475,-0.3622 -7.65,-1.2775 -11.5,-2.034 -3.85,-0.7565 -13.525,-2.3089 -21.5,-3.4498 -7.975,-1.1409 -15.2034,-2.2936 -16.0631,-2.5616 -1.8959,-0.5909 -2.3762,-3.2214 -11.4988,-62.971 -1.4276,-9.35 -3.7021,-24.2 -5.0546,-33 -1.3525,-8.8 -3.5916,-23.6386 -4.9759,-32.9747 -1.3843,-9.3361 -2.9722,-17.25627 -3.5288,-17.60027 -0.5566,-0.344 -6.2696,-1.1625 -12.6954,-1.8189 -16.1563,-1.6503 -45.3065,-4.8833 -59.6834,-6.6193 -6.6,-0.797 -20.55,-2.1368 -31,-2.9774 -10.45,-0.8406 -24.6243,-1.9949 -31.4984,-2.565 -6.8741,-0.5701 -13.4394,-0.8004 -14.5894,-0.5118 -2.1791,0.547 -2.7819,3.2149 -8.0363,35.56737 -1.3729,8.4529 -6.2595,36.5552 -12.433,71.5 -1.166,6.6 -2.5982,15.825 -3.1828,20.5 -0.5845,4.675 -1.1436,8.6115 -1.2425,8.7477 -0.2211,0.3048 -21.5441,-2.4788 -24.7211,-3.2273 -1.2631,-0.2975 -9.0465,-1.2183 -17.2965,-2.0461 -8.25,-0.8278 -27.6,-2.9784 -43,-4.7791 l -28,-3.2739 0.2268,-3.9607 c 0.1248,-2.1783 0.8757,-6.8856 1.6688,-10.4606 2.4848,-11.2004 4.4008,-21.0669 6.6024,-34 1.1704,-6.875 2.7777,-15.65 3.5718,-19.5 0.7941,-3.85 2.5642,-13.525 3.9336,-21.5 1.3694,-7.975 2.9357,-16.74997 3.4806,-19.49997 4.1347,-20.8648 8.4524,-43.6935 11.0645,-58.5 1.6979,-9.625 4.1465,-22.9 5.4412,-29.5 1.2948,-6.6 2.6331,-14.025 2.9741,-16.5 0.3409,-2.475 1.7123,-10.575 3.0474,-18 1.3352,-7.425 3.1122,-17.55 3.9491,-22.5 0.8368,-4.95 2.6705,-15.075 4.0748,-22.5 1.4043,-7.425 3.4096,-18.225 4.4562,-24 2.6339,-14.5343 5.4458,-29.9016 9.9722,-54.5 4.0785,-22.164 7.8931,-43.7183 10.5302,-59.5 0.8731,-5.225 2.0068,-11.75 2.5195,-14.5 0.5126,-2.75 2.1033,-11.975 3.5349,-20.5 1.4316,-8.525 3.2396,-18.425 4.0178,-22 0.7783,-3.575 2.772,-14.6 4.4306,-24.5 1.6586,-9.9 3.8888,-22.5 4.9559,-28 3.6206,-18.6602 7.8678,-41.9816 8.4685,-46.5 0.3291,-2.475 1.4946,-9.45 2.5901,-15.5 1.0954,-6.05 3.1281,-17.975 4.517,-26.5 1.3889,-8.525 3.1909,-18.875 4.0044,-23 6.2221,-31.5503 8.8292,-45.4757 10.952,-58.5 2.8225,-17.3167 5.9566,-32.2743 6.9763,-33.2942 0.8625,-0.8627 172.1236,-0.9544 172.9856,-0.093 0.618,0.6178 3.0951,14.2297 6.6217,36.3868 3.0833,19.3719 4.5902,28.6817 8.4978,52.5 2.0303,12.375 4.4869,27.675 5.4593,34 0.9723,6.325 2.0487,12.625 2.3919,14 0.3432,1.375 2.1677,12.625 4.0543,25 1.8867,12.375 4.1315,26.55 4.9884,31.5 4.5435,26.2457 8.8788,52.5638 14.0018,85 1.3899,8.8 2.952,18.25 3.4713,21 0.5193,2.75 1.6396,9.275 2.4895,14.5 3.8728,23.8088 5.6075,34.3467 7.4903,45.5 1.1141,6.6 2.9179,17.625 4.0084,24.5 1.0906,6.875 4.0045,24.2 6.4753,38.5 4.3802,25.35 8.7934,52.8838 10.7389,67 0.5306,3.85 2.0384,12.625 3.3506,19.5 1.3122,6.875 3.0984,17.225 3.9693,23 2.835,18.7988 6.2684,39.9475 11.3645,70 2.7513,16.225 5.5363,33.54997 6.1889,38.49997 0.6527,4.95 1.5721,10.125 2.0433,11.5 0.4711,1.375 1.0801,4.075 1.3532,6 1.2807,9.0255 4.8745,31.1421 7.6373,47 1.6769,9.625 4.3926,25.6 6.0349,35.5 1.6423,9.9 3.8718,23.2475 4.9544,29.661 2.6228,15.5378 2.6067,15.8628 -0.7816,15.7366 -1.5125,-0.056 -4.325,-0.4848 -6.25,-0.9524 z m -157,-282.83937 c 0,-2.6114 -4.4968,-31.7301 -7.429,-48.1058 -2.37,-13.236 -4.4399,-26.5622 -6.6013,-42.5 -0.5968,-4.4 -1.5293,-10.7 -2.0722,-14 -2.807,-17.0598 -8.3584,-52.2126 -10.8967,-69 -1.5801,-10.45 -3.8248,-24.625 -4.9883,-31.5 -2.8877,-17.0627 -2.6533,-15.5225 -6.5449,-43 -1.9085,-13.475 -4.1584,-28.775 -4.9999,-34 -0.8414,-5.225 -2.1729,-14.675 -2.9587,-21 -0.7858,-6.325 -2.3207,-17.125 -3.4108,-24 -1.0902,-6.875 -2.4809,-16.518 -3.0905,-21.4288 -1.3094,-10.5479 -2.5687,-13.743 -3.3669,-8.542 -1.4271,9.2999 -5.9136,37.795 -7.6315,48.4708 -1.0621,6.6 -2.8599,18.525 -3.995,26.5 -1.1352,7.975 -3.1755,20.125 -4.5342,27 -1.3586,6.875 -3.8629,21.5 -5.565,32.5 -5.0594,32.6968 -6.598,41.9175 -7.2586,43.5 -0.3444,0.825 -1.3436,6.225 -2.2205,12 -3.746,24.6697 -5.5571,35.837 -9.4874,58.5 -5.4055,31.1687 -5.8518,33.8831 -10.3602,63 -1.4477,9.35 -3.2973,20.8895 -4.1103,25.6433 -2.23,13.0398 -2.3485,12.6233 3.7719,13.252 9.0983,0.9344 37.9733,3.5743 44.75,4.0911 3.575,0.2727 14.825,1.1805 25,2.0174 10.175,0.837 21.2,1.6559 24.5,1.8199 3.3,0.1639 7.6875,0.3832 9.75,0.4872 3.08,0.1553 3.75,-0.1494 3.75,-1.7051 z M 497.78885,1150.5216 c -1.34013,-2.6193 -1.86561,-5.5107 -4.12304,-22.6869 -1.15657,-8.8 -3.63821,-25.45 -5.51474,-37 -1.87654,-11.55 -4.55485,-28.9857 -5.95179,-38.7459 -1.39694,-9.7603 -2.96439,-19.6603 -3.48324,-22 -0.78871,-3.5568 -3.22228,-18.8607 -11.09198,-69.75407 -0.46776,-3.025 -1.52797,-9.775 -2.35602,-15 -0.82806,-5.225 -3.09631,-19.85 -5.04056,-32.5 -1.94425,-12.65 -5.12645,-32.9 -7.07156,-45 -1.94512,-12.1 -4.87845,-31 -6.51852,-42 -3.60212,-24.1596 -4.82866,-31.8212 -9.44522,-59 -1.96187,-11.55 -4.47163,-27.525 -5.57726,-35.5 -1.10562,-7.975 -2.47785,-17.425 -3.04941,-21 -3.66369,-22.9161 -8.02694,-50.4647 -8.86948,-56 -0.54416,-3.575 -2.14272,-14.15 -3.55237,-23.5 -1.40965,-9.35 -2.99642,-19.475 -3.52616,-22.5 -0.52974,-3.025 -1.60475,-10.225 -2.38891,-16 -0.78415,-5.775 -2.56876,-17.25 -3.96578,-25.5 -3.24391,-19.1567 -8.06938,-49.5364 -9.60972,-60.5 -0.65681,-4.675 -2.0279,-13.45 -3.04686,-19.5 -1.01896,-6.05 -2.5365,-15.95 -3.37231,-22 -0.83581,-6.05 -2.67697,-18.65 -4.09148,-28 -6.7121,-44.3677 -7.57419,-51.1857 -6.98593,-55.25 l 0.61514,-4.25 h 57.40354 c 65.97448,0 58.73766,-1.3366 60.47902,11.1697 0.56136,4.0316 2.36242,15.6553 4.00236,25.8303 1.63994,10.175 6.14342,39.425 10.00774,65 12.70892,84.1106 15.43038,101.6714 19.99164,129 1.60645,9.625 3.62686,22.45 4.48979,28.5 1.93812,13.5882 5.74326,37.5544 9.52622,60 1.57585,9.35 4.03127,25.325 5.45649,35.5 1.42522,10.175 3.68322,25.25 5.01777,33.5 1.33456,8.25 3.13144,19.95 3.99307,26 0.86164,6.05 2.03171,13.632 2.60017,16.849 0.56846,3.217 1.90185,11.992 2.96308,19.5 3.46662,24.5258 8.02157,53.7791 15.51636,99.651 2.42627,14.85 4.7078,29.8417 5.07006,33.315 1.05397,10.1053 2.88444,5.847 5.29366,-12.315 1.16733,-8.8 3.21256,-22.75 4.54494,-31 3.36075,-20.8096 5.07482,-32.1344 8.02184,-53 1.39825,-9.9 3.42037,-23.625 4.49359,-30.5 1.07323,-6.875 2.63071,-17.45 3.46108,-23.5 0.83036,-6.05 2.59319,-18.2 3.91739,-27 1.32421,-8.8 2.92427,-19.825 3.55571,-24.5 1.27409,-9.4332 3.36145,-22.9391 8.50029,-55 1.89536,-11.825 4.15726,-26.45 5.02646,-32.5 0.86919,-6.05 2.48136,-16.85 3.58259,-24 6.15961,-39.9928 10.75974,-71.0232 15.56579,-105 6.08986,-43.0528 7.28689,-51.211 7.87046,-53.64 0.31183,-1.298 2.5632,-16.085 5.00304,-32.86 2.43984,-16.775 5.78562,-38.6 7.43505,-48.5 1.64944,-9.9 3.35928,-20.7 3.79966,-24 l 0.80069,-6 53.61435,-0.2587 c 45.97823,-0.2218 53.78674,-0.051 54.82473,1.1998 0.93954,1.1321 0.95023,3.2038 0.0478,9.2587 -2.55584,17.1476 -5.24547,34.378 -7.07127,45.3002 -1.05731,6.325 -3.04848,18.7 -4.42481,27.5 -1.37634,8.8 -3.63476,22.975 -5.01871,31.5 -1.38395,8.525 -4.30565,27.65 -6.49265,42.5 -2.18701,14.85 -5.07638,33.975 -6.42083,42.5 -1.34445,8.525 -3.60415,23.15 -5.02157,32.5 -2.86973,18.9302 -3.88193,25.1923 -6.54632,40.5 -1.00517,5.775 -3.24133,19.5 -4.96924,30.5 -1.72791,11 -3.77809,23.825 -4.55595,28.5 -0.77786,4.675 -2.56067,16.15 -3.96181,25.5 -2.40438,16.0448 -8.21082,51.9754 -12.52413,77.5 -1.06884,6.325 -2.22737,13.75 -2.57452,16.5 -0.91201,7.2245 -7.12338,46.104 -9.42584,59 -1.08017,6.05 -4.44269,27.425 -7.47226,47.5 -3.02958,20.075 -5.97589,39.2 -6.54735,42.5 -0.57147,3.3 -1.70298,10.05 -2.51447,15 -0.81149,4.95 -1.90287,11.24997 -2.4253,13.99997 -0.52242,2.75 -1.89354,11.075 -3.04694,18.5 -1.1534,7.425 -5.22186,32.2735 -9.04103,55.2189 -3.81917,22.9453 -6.94395,42.1479 -6.94395,42.6724 0,1.3944 -5.13779,2.7569 -17,4.5084 -26.84406,3.9637 -39.11331,5.8557 -46.5,7.1704 -4.4,0.7831 -15.425,2.5418 -24.5,3.9082 -9.075,1.3664 -20.325,3.1922 -25,4.0574 -4.675,0.8651 -11.32693,1.9987 -14.78208,2.5191 -3.45514,0.5204 -10.20514,1.6472 -15,2.504 -8.47894,1.5152 -17.35222,2.9458 -23.96651,3.864 -2.35821,0.3274 -3.48513,-0.011 -4.11166,-1.2359 z M 854.66441,740.58473 c 0.008,-198.4125 0.3733,-361.3139 0.81083,-362.003 0.63328,-0.9974 34.94335,-1.2013 168.23466,-1 l 167.4392,0.253 0.2589,52.941 c 0.1773,36.2479 -0.075,53.275 -0.7997,54 -0.7289,0.7291 -33.8306,1.1263 -106.2589,1.2751 -57.8602,0.1189 -105.9878,0.4143 -106.9503,0.6564 -1.6504,0.4152 -1.75,5.5597 -1.75,90.4268 0,80.7852 0.1603,90.0482 1.5674,90.5881 0.8621,0.3308 10.4246,0.1618 21.25,-0.3756 27.4708,-1.3637 78.0409,-3.0081 114.3169,-3.7173 l 30.6343,-0.599 0.7325,2.3078 c 1.0319,3.2512 0.8888,106.0203 -0.1489,106.9819 -0.4687,0.4344 -13.6772,1.0805 -29.3522,1.4358 -15.675,0.3554 -40.425,1.2793 -55,2.0531 -14.575,0.7738 -36.175,1.6712 -48,1.9941 -20.9463,0.5721 -30.6859,1.1923 -34.25,2.1811 -1.6514,0.4581 -1.75,5.9782 -1.75,97.9494 0,86.5156 0.1717,97.5299 1.5283,98.0505 0.8406,0.3226 7.2531,0.076 14.25,-0.5488 10.9251,-0.9749 63.8367,-4.3582 126.2217,-8.071 9.625,-0.5728 29.1343,-1.744 43.354,-2.6026 14.2197,-0.8585 26.4822,-1.3199 27.25,-1.0253 1.1712,0.4494 1.396,9.3869 1.396,55.50807 0,32.5203 -0.3771,55.2054 -0.9232,55.5429 -0.5077,0.3138 -12.5452,1.2435 -26.75,2.0659 -14.2047,0.8225 -32.1268,1.9426 -39.8268,2.4893 -7.7,0.5467 -21.875,1.4398 -31.5,1.9847 -9.625,0.5448 -21.775,1.4327 -27,1.9731 -12.802,1.3241 -45.6729,4.0673 -66,5.5081 -13.5771,0.9623 -55.32355,4.5854 -64.5,5.5978 -30.19706,3.3317 -68.62955,6.9149 -74.25,6.9227 l -4.25,0.01 z m 974.98469,349.06277 c -34.2845,-2.5737 -74.164,-14.4818 -96.5,-28.8151 -24.1926,-15.5248 -44.8443,-40.6983 -57.0142,-69.49767 -3.8881,-9.2011 -9.1476,-27.5073 -11.4691,-39.919 -3.0028,-16.0547 -3.995,-31.7395 -4.0064,-63.331 l -0.01,-28.75 8.75,-0.045 c 39.1964,-0.2024 105.6697,0.1314 106.0709,0.5327 0.2732,0.2732 0.397,11.1878 0.2751,24.2546 -0.4,42.867 2.8119,58.0898 15.7321,74.5624 11.1517,14.218 24.9941,19.6492 50.3869,19.7699 25.4684,0.121 41.5444,-7.5693 50.177,-24.0034 9.1948,-17.5043 10.9904,-45.4673 4.5639,-71.0711 -2.1133,-8.4194 -8.1,-22.9575 -13.4972,-32.7764 -9.5674,-17.4058 -36.5323,-44.9181 -62.9587,-64.2369 -3.3,-2.4125 -6.5235,-4.8589 -7.1634,-5.4365 -0.6399,-0.5776 -6.0399,-4.5389 -12,-8.8029 -10.6322,-7.6065 -19.1813,-14.3281 -43.4593,-34.1692 -19.5062,-15.9413 -36.7752,-33.7951 -50.5567,-52.269 -10.4171,-13.9639 -15.9499,-23.2847 -23.3124,-39.2733 -13.7878,-29.9417 -20.0128,-59.4039 -19.9742,-94.5358 0.021,-18.6952 1.1064,-31.2702 4.0408,-46.7962 2.0636,-10.9189 8.0902,-34.1963 9.8911,-38.2038 9.2357,-20.5529 11.0081,-23.6288 22.3378,-38.7678 7.0204,-9.3807 19.0231,-21.3841 27.1963,-27.1977 34.1716,-24.3063 75.8283,-35.0304 126.5,-32.566 53.4764,2.6007 92.7333,18.1256 121.2438,47.9481 12.0437,12.5979 16.8302,19.2954 23.9988,33.5803 6.7819,13.5146 7.5236,15.4244 12.2331,31.5031 4.2176,14.3988 6.0407,23.2671 7.9149,38.5001 1.42,11.5419 2.8549,54.6768 1.9045,57.2499 -0.3621,0.9802 -12.858,1.25 -57.8784,1.25 h -57.4167 l -0.092,-3.25 c -0.051,-1.7875 -0.2274,-11.125 -0.3931,-20.75 -0.4545,-26.3937 -4.3237,-45.0224 -11.5276,-55.5 -4.0569,-5.9007 -12.963,-13.9483 -18.5701,-16.7803 -10.8953,-5.5029 -36.7767,-7.6104 -50.5865,-4.1192 -22.2839,5.6334 -36.9993,24.0528 -39.7925,49.8085 -2.1277,19.6202 0.7493,44.4966 6.9497,60.091 12.7026,31.9478 34.5669,56.1438 81.012,89.6516 10.6852,7.7089 32.3039,24.4882 41.5,32.2102 19.7645,16.5963 24.0813,20.4727 37.0527,33.272 36.2633,35.7822 53.897,66.425 65.2637,113.4113 4.6924,19.3971 5.6478,28.9279 5.6591,56.4549 0.011,27.0957 -1.2225,38.6976 -6.0965,57.3404 -8.0439,30.76767 -17.4233,49.59047 -34.8762,69.99017 -10.8394,12.6695 -17.8622,18.8423 -30.0028,26.3718 -12.2853,7.6192 -17.2265,9.9696 -29.755,14.1537 -23.3499,7.798 -36.8558,9.7198 -66.5462,9.4692 -11.3843,-0.096 -22.7238,-0.3267 -25.1988,-0.5125 z m -554.2606,-19.5494 c -0.77,-2.0068 -0.8664,-687.58377 -0.097,-690.51337 l 0.5909,-2.25 h 59.2555 59.2556 l 0.5643,3.75 c 0.3103,2.0625 0.605,132.6251 0.6548,290.1391 0.05,157.5141 0.3269,286.7718 0.6159,287.2394 0.289,0.4675 32.1144,0.8496 70.723,0.8489 38.6087,-7e-4 84.2639,0.301 101.4561,0.6705 l 31.2584,0.6717 -0.2584,54.59017 -0.2585,54.5902 -55,-0.5 c -60.195,-0.5472 -187.918,-0.2773 -193.5,0.4089 -1.925,0.2367 -19.5142,0.7572 -39.087,1.1566 -31.4476,0.6419 -35.6552,0.5486 -36.1736,-0.8021 z"
       id="path1" />
  </g>
</svg>
